<mxfile host="app.diagrams.net" modified="2022-12-30T08:51:15.299Z" agent="5.0 (Windows NT 10.0; Win64; x64) AppleWebKit/537.36 (KHTML, like Gecko) Chrome/108.0.0.0 Safari/537.36" version="20.7.4" etag="PwIx6ewzjIDVW7ryCdlW" type="github">
  <diagram id="EFfqPKKLMhdimeXcBZgi" name="第 1 页">
    <mxGraphModel dx="1147" dy="611" grid="1" gridSize="10" guides="1" tooltips="1" connect="1" arrows="1" fold="1" page="1" pageScale="1" pageWidth="827" pageHeight="1169" math="0" shadow="0">
      <root>
        <mxCell id="0" />
        <mxCell id="1" parent="0" />
        <mxCell id="5KoFt_vtwGXnBiFjvVni-1" value="请求转发解析" style="rounded=1;whiteSpace=wrap;html=1;" vertex="1" parent="1">
          <mxGeometry x="160" y="110" width="170" height="60" as="geometry" />
        </mxCell>
        <mxCell id="5KoFt_vtwGXnBiFjvVni-2" value="1）白名单地址校验" style="rounded=1;whiteSpace=wrap;html=1;" vertex="1" parent="1">
          <mxGeometry x="550" y="110" width="170" height="60" as="geometry" />
        </mxCell>
        <mxCell id="5KoFt_vtwGXnBiFjvVni-3" value="requestHead：&lt;br&gt;1）所属系统&lt;br&gt;2）渠道商&lt;br&gt;&lt;font color=&quot;#ff3333&quot;&gt;&lt;b&gt;3）资源编码&lt;/b&gt;&lt;/font&gt;" style="shape=callout;whiteSpace=wrap;html=1;perimeter=calloutPerimeter;align=left;" vertex="1" parent="1">
          <mxGeometry x="500" width="170" height="90" as="geometry" />
        </mxCell>
      </root>
    </mxGraphModel>
  </diagram>
</mxfile>
